<svg width="693" height="705" viewBox="0 0 693 705" fill="none" xmlns="http://www.w3.org/2000/svg">
<g opacity="0.4">
<g style="mix-blend-mode:lighten">
<path d="M379.055 691.165C355.561 691.165 332.403 679.571 309.916 668.489C295.316 661.157 280.213 653.655 265.278 649.563C251.181 645.642 235.575 644.278 219.297 643.084C190.936 640.868 161.737 638.481 139.753 621.09C117.77 603.699 108.54 575.396 99.4779 547.946C94.2757 532.09 89.2412 517.086 82.0253 504.128C74.4737 490.488 63.5658 477.36 53.1613 464.743C35.0375 442.919 16.4102 420.413 13.2217 393.645C10.0333 366.877 22.7871 340.45 35.0375 314.875C42.2535 300.042 49.6373 284.697 53.6648 269.522C57.5245 255.201 58.867 239.344 60.0417 222.806C62.2233 193.992 64.5727 164.325 81.6896 141.99C98.8066 119.654 126.664 110.277 153.682 101.07C169.288 95.7847 184.056 90.6697 196.81 83.3383C210.235 75.6659 223.156 64.5835 235.575 54.0126C257.055 35.5988 279.206 16.6734 305.553 13.434C331.9 10.1945 357.911 23.1524 383.083 35.5988C397.683 42.9302 412.786 50.4321 427.721 54.5241C441.817 58.4455 457.424 59.8095 473.702 61.003C502.062 63.2195 531.262 65.6065 553.246 82.9973C575.229 100.388 584.459 128.691 593.521 156.141C598.723 171.997 603.758 187.001 610.974 199.959C618.525 213.599 629.433 226.727 639.837 239.344C657.961 261.168 676.589 283.674 679.777 310.442C682.966 337.21 670.212 363.638 657.961 389.212C650.745 404.046 643.361 419.391 639.334 434.565C635.474 448.887 634.132 464.743 632.957 481.281C630.775 510.096 628.426 539.762 611.309 562.098C594.192 584.433 566.335 593.81 539.317 603.017C523.71 608.303 508.943 613.418 496.189 620.749C482.764 628.421 469.842 639.504 457.424 650.075C435.944 668.489 413.793 687.414 387.446 690.653C384.761 690.994 381.908 691.165 379.055 691.165ZM82.6965 142.331L83.5356 143.013C66.7542 164.836 64.4048 194.162 62.2233 222.635C61.0486 238.662 59.7061 255.201 55.6785 269.863C51.4832 285.208 44.0994 300.724 36.8834 315.557C24.6331 340.791 12.047 367.048 15.2355 393.134C18.4239 419.22 36.8834 441.555 54.6717 463.038C65.2439 475.825 76.1518 488.954 83.8712 502.764C91.255 515.893 96.4572 531.749 101.492 546.923C110.386 574.032 119.615 601.994 141.096 619.044C162.576 636.094 191.44 638.481 219.465 640.697C235.239 641.891 251.517 643.255 265.949 647.347C281.052 651.609 296.323 659.111 310.923 666.443C335.759 678.889 361.603 691.676 387.278 688.437C412.954 685.197 434.937 666.443 456.082 648.37C468.668 637.628 481.589 626.546 495.182 618.703C508.104 611.201 523.71 605.916 538.646 600.801C565.328 591.764 592.85 582.387 609.631 560.563C626.412 538.739 628.762 509.414 630.943 480.94C632.118 464.914 633.461 448.375 637.488 433.712C641.683 418.367 649.067 402.852 656.283 388.019C668.534 362.785 681.12 336.528 677.931 310.442C674.743 284.356 656.283 262.021 638.495 240.538C627.923 227.75 617.015 214.622 609.295 200.812C601.912 187.683 596.709 171.827 591.675 156.653C582.781 129.543 573.551 101.582 552.071 84.5318C530.591 67.4819 501.727 65.095 473.702 62.8785C457.928 61.685 441.65 60.321 427.218 56.2291C412.114 51.9666 396.843 44.4647 382.244 37.1332C357.407 24.6869 331.564 11.8995 305.889 15.139C280.213 18.3784 258.229 37.1332 237.085 55.2061C224.499 65.9475 211.577 77.0298 197.984 84.8728C185.063 92.3747 169.456 97.6601 154.521 102.775C127.838 111.811 100.317 121.189 83.5356 143.013L82.6965 142.331Z" fill="#E9E9E9"/>
</g>
<g style="mix-blend-mode:lighten">
<path d="M312.783 662.954C309.588 662.954 306.393 662.783 303.198 662.27C277.805 658.681 257.625 640.564 238.117 622.96C226.85 612.876 216.088 603.134 204.652 596.298C192.376 588.948 177.914 583.65 163.956 578.523C139.74 569.635 114.683 560.406 100.053 540.58C85.4223 520.754 83.5725 493.75 81.8908 467.6C80.8818 452.559 79.8728 436.835 76.3413 422.82C72.978 409.66 66.924 396.5 60.3655 382.656C49.0983 358.728 37.4949 333.945 41.1945 308.137C44.726 282.329 62.5517 261.82 79.8728 241.994C89.7946 230.542 99.3801 219.604 106.107 207.982C113.338 195.505 118.551 180.806 123.596 166.621C132.341 142.009 141.422 116.543 160.929 101.673C180.436 86.8038 207.007 84.9238 232.736 83.2146C247.535 82.1892 263.006 81.1637 276.796 77.5745C289.745 74.1562 302.693 68.0033 316.315 61.3377C339.858 49.8864 364.242 38.0934 389.635 41.8535C415.029 45.4427 435.208 63.5596 454.716 81.1637C465.983 91.2476 476.746 100.99 488.181 107.826C500.457 115.175 514.919 120.474 528.877 125.601C553.093 134.489 578.15 143.718 592.781 163.544C607.411 183.37 609.261 210.374 611.111 236.524C612.12 251.565 613.129 267.289 616.66 281.304C620.023 294.464 626.077 307.624 632.636 321.468C643.903 345.396 655.507 370.179 651.807 395.987C648.275 421.795 630.45 442.304 613.129 462.13C603.207 473.582 593.621 484.52 586.895 496.142C579.664 508.619 574.45 523.318 569.405 537.503C560.661 562.115 551.58 587.581 532.072 602.451C512.565 617.32 485.995 619.2 460.265 620.909C445.467 621.935 429.995 622.96 416.206 626.55C403.257 629.968 390.308 636.121 376.687 642.786C356.002 652.699 334.813 662.954 312.783 662.954ZM42.0354 308.479L43.2125 308.65C39.681 333.774 51.1164 358.044 62.2153 381.63C68.4375 394.961 74.996 408.805 78.3593 422.137C81.8908 436.322 83.068 452.047 84.077 467.258C85.7586 493.066 87.6085 519.557 101.903 538.871C116.197 558.013 140.749 567.072 164.629 575.959C178.755 581.086 193.385 586.556 205.829 593.905C217.601 600.912 228.868 610.996 239.799 620.909C259.138 638.172 278.982 656.118 303.702 659.707C328.423 663.296 352.302 651.674 375.509 640.393C388.626 634.07 402.248 627.404 415.365 623.986C429.323 620.397 444.794 619.2 459.761 618.175C485.154 616.466 511.22 614.586 530.223 600.058C549.057 585.53 557.97 560.577 566.715 536.307C571.76 521.95 577.141 507.081 584.372 494.433C591.267 482.469 601.189 471.018 610.942 459.909C627.927 440.254 645.585 420.086 649.116 394.961C652.648 369.837 641.212 345.567 630.113 321.981C623.891 308.65 617.333 294.806 613.969 281.475C610.438 267.289 609.261 251.565 608.252 236.353C606.57 210.545 604.72 184.054 590.426 164.741C576.132 145.598 551.58 136.54 527.7 127.652C513.574 122.525 498.944 117.056 486.499 109.706C474.728 102.699 463.46 92.6149 452.53 82.7019C433.191 65.4396 413.347 47.4937 388.626 43.9045C364.074 40.3153 340.026 51.9374 316.819 63.2177C303.702 69.5415 290.081 76.2072 276.964 79.6254C263.006 83.2146 247.535 84.411 232.568 85.4365C207.175 87.1457 181.109 89.0257 162.106 103.553C143.272 118.081 134.359 143.034 125.614 167.304C120.569 181.661 115.188 196.53 107.957 209.178C101.062 221.142 91.14 232.593 81.3863 243.703C64.4015 263.358 46.744 283.526 43.2125 308.65L42.0354 308.479Z" fill="#E9E9E9"/>
</g>
<g style="mix-blend-mode:lighten">
<path d="M425.251 624.164C411.261 624.164 396.934 621.253 382.944 618.342C369.459 615.602 356.481 612.862 344.345 612.862C331.366 612.691 317.376 615.26 303.892 617.657C280.632 621.938 256.36 626.219 235.628 617.315C214.896 608.41 201.243 587.69 188.096 567.655C180.511 556.182 172.589 544.195 163.487 534.777C154.891 525.873 144.103 518.338 132.642 510.29C112.921 496.42 92.3575 482.207 83.5928 459.945C74.6594 437.684 79.716 413.026 84.4355 389.052C87.1324 375.353 89.8293 362.168 89.8293 349.839C89.9978 336.653 87.4695 322.44 85.1098 308.741C80.8959 285.11 76.6821 260.451 85.4469 239.389C94.2116 218.327 114.607 204.456 134.327 191.099C145.62 183.394 157.419 175.345 166.69 166.098C175.454 157.365 182.871 146.406 190.793 134.762C204.446 114.727 218.435 93.8354 240.347 84.931C262.259 75.8553 286.531 80.9925 310.129 85.7872C323.613 88.527 336.591 91.2668 348.727 91.2668C361.706 91.4381 375.696 88.8695 389.18 86.4721C412.44 82.1911 436.712 77.9102 457.444 86.8146C478.176 95.7191 491.829 116.439 504.976 136.474C512.561 147.947 520.483 159.934 529.585 169.352C538.181 178.257 548.969 185.791 560.43 193.839C580.151 207.71 600.715 221.923 609.479 244.184C618.244 266.445 613.356 291.103 608.637 315.077C605.94 328.776 603.243 341.961 603.243 354.291C603.074 367.476 605.603 381.689 607.962 395.388C612.176 419.019 616.39 443.678 607.625 464.74C598.861 485.803 578.466 499.673 558.745 513.03C547.452 520.736 535.653 528.784 526.383 538.031C517.618 546.764 510.201 557.723 502.279 569.368C488.627 589.403 474.637 610.294 452.725 619.198C443.791 622.794 434.69 624.164 425.251 624.164ZM343.334 609.78C343.671 609.78 344.008 609.78 344.176 609.78C356.818 609.951 370.302 612.691 383.449 615.431C406.541 620.226 430.476 625.192 451.545 616.458C472.614 607.725 486.435 587.348 499.92 567.655C507.505 556.525 515.258 544.88 524.36 535.976C533.799 526.558 545.598 518.509 557.228 510.632C576.612 497.447 596.501 483.748 604.928 463.542C613.356 443.335 609.142 419.191 605.097 395.902C602.737 382.032 600.209 367.819 600.209 354.291C600.378 341.448 603.074 327.749 605.771 314.392C610.491 290.932 615.379 266.616 606.783 245.211C598.186 223.806 578.128 209.765 558.745 196.065C547.789 188.36 536.327 180.483 527.562 171.236C518.292 161.646 510.37 149.659 502.617 137.844C489.638 118.151 476.154 97.9452 456.264 89.3832C436.375 80.8212 412.609 85.1022 389.686 89.212C376.033 91.6093 362.043 94.1779 348.727 94.1779C336.086 94.0066 322.601 91.2668 309.454 88.527C286.363 83.7323 262.428 78.7663 241.359 87.4996C220.29 96.2328 206.468 116.61 192.984 136.303C185.399 147.433 177.646 159.078 168.544 167.982C159.105 177.4 147.306 185.449 135.676 193.326C116.292 206.511 96.4028 220.21 87.9752 240.416C79.5475 260.623 83.7613 284.767 87.8066 308.056C90.1663 321.926 92.6947 336.139 92.6947 349.667C92.5261 362.51 89.8292 376.209 87.1324 389.566C82.4129 413.026 77.5248 437.342 86.1211 458.747C94.7173 480.152 114.775 494.193 134.159 507.893C145.115 515.598 156.576 523.475 165.341 532.722C174.612 542.312 182.534 554.299 190.287 566.114C203.266 585.807 216.75 606.013 236.639 614.575C256.529 623.137 280.295 618.856 303.218 614.746C316.534 612.349 330.355 609.78 343.334 609.78Z" fill="#E9E9E9"/>
</g>
<g style="mix-blend-mode:lighten">
<path d="M371.46 613.585C353.246 613.585 335.37 604.674 317.999 596.106C306.869 590.451 295.232 584.796 283.764 581.54C272.971 578.455 261.165 577.598 248.517 576.57C226.593 574.856 203.994 572.971 186.961 559.433C169.928 545.895 162.676 523.96 155.761 502.882C151.714 490.715 148.004 479.233 142.438 469.294C136.704 458.841 128.272 448.901 120.346 439.134C106.348 422.34 92.013 404.86 89.4833 384.125C86.9536 363.389 96.9037 342.825 106.348 323.118C111.913 311.808 117.479 299.983 120.683 288.33C123.719 277.363 124.562 265.367 125.574 252.515C127.26 230.237 129.115 207.274 142.438 189.966C155.761 172.658 177.348 165.289 198.092 158.263C210.066 154.15 221.365 150.38 231.146 144.725C241.434 138.898 251.215 130.33 260.828 122.276C277.355 108.052 294.557 93.486 314.964 90.9155C335.37 88.345 355.607 98.4556 375.002 108.052C386.132 113.707 397.769 119.362 409.237 122.618C420.03 125.703 431.836 126.56 444.484 127.588C466.408 129.302 489.007 131.187 506.04 144.725C523.073 158.263 530.325 180.198 537.24 201.276C541.287 213.443 544.997 224.925 550.563 234.864C556.297 245.317 564.729 255.257 572.655 265.024C586.653 281.818 600.988 299.298 603.518 320.033C606.047 340.769 596.097 361.333 586.653 381.04C581.088 392.35 575.522 404.175 572.318 415.828C569.282 426.795 568.439 438.791 567.427 451.643C565.741 473.921 563.886 496.884 550.563 514.192C537.24 531.5 515.653 538.869 494.909 545.895C482.935 550.008 471.636 553.778 461.855 559.433C451.567 565.26 441.786 573.828 432.173 581.882C415.646 596.106 398.444 610.672 378.037 613.243C375.845 613.414 373.653 613.585 371.46 613.585ZM188.985 556.691C205.343 569.544 227.436 571.429 248.854 573.143C260.997 574.171 273.645 575.199 284.776 578.284C296.412 581.54 308.218 587.366 319.517 593.021C338.574 602.446 358.137 612.214 377.7 609.815C397.263 607.416 413.959 593.021 430.149 579.141C439.762 570.915 449.712 562.346 460.337 556.349C470.287 550.522 482.261 546.581 493.897 542.639C514.304 535.785 535.216 528.587 548.033 511.965C560.682 495.342 562.537 472.893 564.223 451.129C565.235 438.791 566.247 425.938 569.282 414.628C572.487 402.804 578.221 390.808 583.786 379.326C593.062 359.962 602.674 340.083 600.313 320.205C597.952 300.326 583.786 283.361 570.126 266.91C562.031 257.142 553.598 247.031 547.696 236.235C541.962 226.124 538.083 213.957 534.204 202.133C527.458 181.397 520.375 160.148 504.016 147.124C487.658 134.271 465.565 132.386 444.147 130.673C432.004 129.644 419.356 128.616 408.225 125.532C396.589 122.276 384.783 116.449 373.484 110.794C354.427 101.369 334.864 91.601 315.301 94.0001C295.738 96.3992 279.042 110.794 262.852 124.675C253.239 132.9 243.289 141.469 232.664 147.467C222.714 153.293 210.74 157.235 199.103 161.176C178.697 168.031 157.785 175.228 144.968 191.851C132.319 208.473 130.464 230.922 128.778 252.686C127.766 265.025 126.754 277.877 123.718 289.187C120.514 301.012 114.78 313.007 109.215 324.489C99.9394 343.853 90.3265 363.732 92.6876 383.611C95.0486 403.489 109.215 420.455 122.875 436.906C130.97 446.674 139.403 456.784 145.305 467.58C151.039 477.691 154.918 489.858 158.797 501.683C165.711 522.247 172.795 543.667 188.985 556.691Z" fill="#E9E9E9"/>
</g>
<g style="mix-blend-mode:lighten">
<path d="M320.644 591.252C318.125 591.252 315.775 591.081 313.256 590.74C293.444 587.84 277.997 573.85 262.886 560.373C254.323 552.696 246.096 545.36 237.366 540.071C228.131 534.441 217.05 530.517 206.304 526.423C187.667 519.599 168.359 512.434 156.942 497.079C145.525 481.725 144.181 460.912 142.838 440.61C141.999 429.009 141.327 417.067 138.641 406.49C136.122 396.424 131.421 386.529 126.384 375.952C117.653 357.527 108.755 338.419 111.609 318.288C114.463 298.157 128.231 282.462 141.495 267.108C149.05 258.407 156.27 250.048 161.475 241.176C167.016 231.793 170.877 220.534 174.907 209.615C181.623 190.678 188.675 171.059 203.786 159.458C218.897 147.857 239.38 146.492 259.36 145.127C270.778 144.274 282.531 143.592 292.94 140.862C302.846 138.303 312.585 133.527 322.994 128.408C341.128 119.537 359.932 110.495 379.744 113.395C399.556 116.296 415.003 130.285 430.114 143.763C438.677 151.44 446.904 158.776 455.635 164.064C464.869 169.694 475.951 173.618 486.696 177.712C505.333 184.537 524.642 191.702 536.059 207.056C547.476 222.41 548.819 243.224 550.162 263.525C551.002 275.126 551.673 287.068 554.36 297.646C556.878 307.711 561.579 317.606 566.616 328.183C575.347 346.608 584.246 365.716 581.392 385.847C578.537 405.978 564.77 421.673 551.505 437.027C543.95 445.728 536.73 454.088 531.526 462.959C525.985 472.342 522.123 483.602 518.094 494.52C511.378 513.457 504.326 533.076 489.215 544.677C474.104 556.278 453.62 557.643 433.64 559.008C422.223 559.861 410.47 560.543 400.06 563.273C390.154 565.832 380.416 570.609 370.006 575.727C354.056 583.233 337.77 591.252 320.644 591.252ZM371.853 116.466C355.567 116.466 339.616 124.143 324.17 131.65C314.096 136.597 303.686 141.545 293.444 144.274C282.698 147.175 270.778 147.857 259.193 148.71C239.884 150.075 219.904 151.44 205.633 162.358C191.361 173.277 184.645 192.384 177.929 210.809C174.068 221.898 169.87 233.329 164.329 243.053C158.957 252.265 151.233 261.137 143.846 269.667C130.917 284.509 117.485 300.034 114.799 318.971C112.113 337.908 120.843 356.503 129.238 374.417C134.107 384.653 138.977 395.23 141.663 405.637C144.517 416.555 145.189 428.668 146.028 440.439C147.372 460.059 148.715 480.36 159.46 494.861C170.206 509.363 189.011 516.187 207.144 523.011C218.057 526.935 229.306 531.2 238.877 536.83C247.943 542.289 256.674 550.137 265.069 557.643C279.676 570.779 294.955 584.428 313.592 587.157C332.229 589.887 350.53 581.015 368.159 572.485C378.233 567.538 388.643 562.59 398.885 559.861C409.63 556.961 421.551 556.278 433.136 555.425C452.445 554.06 472.425 552.696 486.696 541.777C500.968 530.859 507.684 511.751 514.4 493.326C518.261 482.237 522.459 470.807 528 461.082C533.372 451.87 541.096 442.998 548.483 434.468C561.412 419.626 574.844 404.101 577.53 385.164C580.216 366.228 571.486 347.632 563.091 329.719C558.222 319.483 553.352 308.905 550.666 298.499C547.812 287.58 547.14 275.467 546.301 263.696C544.957 244.077 543.614 223.775 532.869 209.274C522.123 194.773 503.318 187.949 485.185 181.124C474.272 177.201 463.023 172.936 453.452 167.306C444.386 161.846 435.655 153.999 427.26 146.492C412.653 133.356 397.374 119.708 378.737 116.978C376.554 116.637 374.204 116.466 371.853 116.466Z" fill="#E9E9E9"/>
</g>
<g style="mix-blend-mode:lighten">
<path d="M406.781 561.865C396.019 561.865 384.921 559.644 374.16 557.422C363.734 555.201 353.982 553.321 344.733 553.15C334.813 552.979 324.219 555.03 313.962 556.91C295.97 560.157 277.305 563.574 261.163 556.568C245.021 549.562 234.427 533.669 224.17 518.118C218.285 509.232 212.231 500.175 205.337 492.998C198.779 486.163 190.54 480.523 181.796 474.372C166.495 463.606 150.688 452.669 143.794 435.239C136.9 417.808 140.768 398.669 144.467 380.213C146.485 369.618 148.503 359.707 148.671 350.308C148.839 340.226 146.821 329.46 144.971 319.036C141.777 300.751 138.414 281.782 145.308 265.377C152.202 248.972 167.84 238.206 183.141 227.782C191.885 221.801 200.797 215.649 207.859 208.643C214.585 201.978 220.134 193.605 226.188 184.719C236.781 169.168 247.543 153.105 264.694 146.099C281.845 139.092 300.678 143.023 318.838 146.782C329.264 148.833 339.016 150.883 348.265 151.054C358.185 151.225 368.779 149.174 379.036 147.295C397.028 144.048 415.693 140.63 431.835 147.636C447.977 154.643 458.571 170.535 468.828 186.086C474.713 194.972 480.767 204.029 487.661 211.206C494.219 218.042 502.458 223.681 511.202 229.833C526.503 240.599 542.309 251.535 549.204 268.966C556.098 286.396 552.23 305.536 548.531 323.991C546.513 334.586 544.495 344.498 544.327 353.897C544.159 363.979 546.177 374.745 548.027 385.169C551.221 403.454 554.584 422.422 547.69 438.827C540.796 455.232 525.158 465.998 509.857 476.422C501.113 482.403 492.201 488.555 485.139 495.561C478.413 502.226 472.864 510.599 466.81 519.486C456.217 535.036 445.455 551.1 428.304 558.106C421.242 560.669 414.011 561.865 406.781 561.865ZM343.893 548.707C344.061 548.707 344.397 548.707 344.565 548.707C354.318 548.878 364.743 550.929 374.832 552.979C392.488 556.568 410.648 560.327 426.454 553.834C442.428 547.34 452.854 531.789 463.111 516.751C468.996 508.207 475.05 499.15 481.944 492.315C489.342 484.966 498.422 478.815 507.166 472.663C521.795 462.58 537.097 452.327 543.486 436.947C549.876 421.738 546.681 403.454 543.486 385.681C541.637 375.086 539.619 363.979 539.787 353.555C539.955 343.643 541.973 333.048 543.991 322.795C547.522 304.852 551.221 286.396 544.832 270.333C538.442 254.099 523.14 243.504 508.343 233.08C499.936 227.099 491.024 220.947 484.298 213.94C477.067 206.421 471.014 197.194 464.961 188.307C455.04 173.44 444.951 157.89 429.817 151.396C414.852 144.902 396.86 148.149 379.372 151.396C368.947 153.276 358.017 155.326 347.76 155.156C338.007 154.985 327.582 152.934 317.493 150.883C299.837 147.295 281.677 143.535 265.871 150.029C249.897 156.523 239.472 172.073 229.214 187.111C223.329 195.656 217.276 204.713 210.382 211.548C202.983 218.896 193.903 225.048 185.159 231.2C170.53 241.282 155.229 251.536 148.839 266.915C142.449 282.124 145.644 300.409 148.839 318.181C150.688 328.776 152.706 339.884 152.538 350.308C152.37 360.219 150.352 370.814 148.334 381.067C144.803 399.011 141.104 417.466 147.494 433.53C153.883 449.764 169.185 460.359 183.982 470.783C192.39 476.764 201.302 482.916 208.028 489.922C215.258 497.441 221.311 506.669 227.365 515.555C237.286 530.422 247.375 545.973 262.508 552.467C277.473 558.96 295.466 555.713 312.953 552.467C323.378 550.758 333.972 548.707 343.893 548.707Z" fill="#E9E9E9"/>
</g>
<g style="mix-blend-mode:lighten">
<path d="M448.829 704.095C430.806 704.095 412.277 700.329 394.085 696.564C376.399 692.969 359.723 689.546 343.721 689.375C326.708 689.203 308.684 692.456 291.166 695.708C261.015 701.185 229.853 706.833 203.239 695.365C176.625 683.897 158.938 657.196 141.925 631.35C131.987 616.288 121.712 600.712 109.753 588.559C98.4669 576.92 84.4861 567.164 69.663 556.723C44.0596 538.922 17.7825 520.436 6.32829 491.851C-5.12587 463.267 1.27498 431.259 7.50739 400.45C11.0447 382.478 14.4136 365.532 14.582 349.272C14.7505 331.984 11.55 313.67 8.34961 295.869C2.95942 265.23 -2.59922 233.565 8.68649 206.521C19.9722 179.477 46.2494 161.505 71.6844 144.217C86.5074 134.119 101.836 123.678 113.795 111.525C125.249 100.057 134.851 85.8506 145.126 70.7881C162.644 44.7712 180.836 18.0696 208.966 6.43049C237.096 -5.20866 268.595 1.29558 298.915 7.62865C316.601 11.2231 333.277 14.6464 349.279 14.8175C366.124 14.9887 384.316 11.7366 401.834 8.48447C431.985 3.00722 463.147 -2.64119 489.761 8.82679C516.375 20.2948 534.062 46.9964 551.075 72.8421C561.013 87.9045 571.288 103.48 583.247 115.633C594.533 127.272 608.514 137.029 623.337 147.47C648.94 165.271 675.218 183.756 686.672 212.341C698.126 240.925 691.725 272.933 685.493 303.742C681.955 321.715 678.586 338.66 678.418 354.92C678.249 372.208 681.45 390.522 684.65 408.323C690.041 438.962 695.599 470.627 684.313 497.671C673.028 524.715 646.751 542.687 621.316 559.975C606.493 570.073 591.164 580.514 579.205 592.667C567.751 604.135 558.149 618.342 547.874 633.404C530.356 659.421 512.164 686.123 484.034 697.762C472.917 702.212 460.957 704.095 448.829 704.095ZM342.542 687.492C342.878 687.492 343.384 687.492 343.721 687.492C359.891 687.663 376.736 691.086 394.422 694.681C424.574 700.843 455.736 707.347 483.36 695.879C510.985 684.582 529.009 657.88 546.527 632.206C556.802 616.972 566.403 602.766 578.026 591.127C590.154 578.974 605.65 568.533 620.473 558.263C645.74 540.976 671.68 523.174 682.797 496.644C693.915 470.114 688.356 438.62 683.134 408.323C679.934 390.351 676.734 371.866 676.902 354.578C677.07 338.146 680.439 321.03 683.977 303.058C690.04 272.419 696.441 240.754 685.156 212.683C674.038 184.612 647.761 166.298 622.495 148.497C607.503 138.056 593.522 128.299 582.068 116.489C570.109 104.165 559.834 88.418 549.727 73.3556C532.714 47.681 515.196 21.3218 489.087 10.0249C462.979 -1.27187 431.985 4.37653 402.171 9.68261C384.484 12.9347 366.292 16.1868 349.279 16.0157C333.109 15.8445 316.264 12.4212 298.578 8.82679C268.426 2.66489 237.264 -3.83934 209.64 7.62865L209.303 6.77283L209.64 7.62865C182.015 18.9255 163.991 45.6271 146.473 71.3016C136.198 86.5352 126.597 100.742 114.974 112.381C102.846 124.534 87.3496 134.975 72.5266 145.244C47.2601 162.532 21.3198 180.333 10.2025 206.863C-0.914773 233.394 4.64384 264.888 9.86559 295.184C13.066 313.156 16.2665 331.642 16.098 348.93C15.9296 365.361 12.5607 382.478 9.02337 400.45C2.95941 431.088 -3.44144 462.754 7.84427 490.824C18.9615 518.895 45.2387 537.21 70.5053 555.011C85.4967 565.452 99.4775 575.208 110.932 587.019C122.891 599.342 133.335 615.09 143.273 630.152C160.286 655.827 177.804 682.186 203.913 693.483C230.021 704.779 261.015 699.131 290.829 693.825C308.011 690.744 325.866 687.492 342.542 687.492Z" fill="#E9E9E9"/>
</g>
</g>
</svg>
